# xmcd CD database file
#
# Track frame offsets:
#	150
#	17825
#	38670
#	54850
#
# Disc length: 1071 seconds
#
# Revision: 0
# Processed by: cddbd v1.5PL3 Copyright (c) Steve Scherf et al.
# Submitted via: CDex 1.51
#
DISCID=24042d04
DTITLE=Technotronic - Move That Body (Featuring Reggie) (Single)
DYEAR=1991
DGENRE=Dance
TTITLE0=Move That Body 7 Inch Version
TTITLE1=Move That Body 12 Inch Version
TTITLE2=Move That Body Instrumental
TTITLE3=Getting Started Instrumental
EXTD=YEAR: 1991
EXTT0=
EXTT1=
EXTT2=
EXTT3=
PLAYORDER=
